<?xml version="1.0" encoding="utf-8"?>
<!-- Generator: Adobe Illustrator 16.0.4, SVG Export Plug-In . SVG Version: 6.00 Build 0)  -->
<!DOCTYPE svg PUBLIC "-//W3C//DTD SVG 1.1//EN" "http://www.w3.org/Graphics/SVG/1.1/DTD/svg11.dtd">
<svg version="1.1" xmlns="http://www.w3.org/2000/svg" xmlns:xlink="http://www.w3.org/1999/xlink" x="0px" y="0px" width="1296px"
	 height="1728px" viewBox="0 0 1296 1728" enable-background="new 0 0 1296 1728" xml:space="preserve">
<g id="Background">
	<rect x="0.074" y="1.268" fill="#FFFAC6" width="1296" height="1607.721"/>
</g>
<g id="Layer_2">
	<rect x="36.074" y="36.991" fill="#06144D" width="1224" height="1469.997"/>
</g>
<g id="Layer_3">
	<g>
		<path fill="#FFFAC6" d="M618.873,1492.626c0.994,0,1.799-0.733,1.799-1.637c0-0.905-0.805-1.639-1.799-1.639
			s-1.799,0.733-1.799,1.639C617.074,1491.893,617.879,1492.626,618.873,1492.626"/>
		<path fill="#FFFAC6" d="M621.718,1490.988c0.994,0,1.799-0.733,1.799-1.637c0-0.905-0.805-1.639-1.799-1.639
			s-1.799,0.733-1.799,1.639C619.919,1490.255,620.724,1490.988,621.718,1490.988"/>
		<path fill="#FFFAC6" d="M621.718,1492.626c0.994,0,1.799-0.733,1.799-1.637c0-0.905-0.805-1.639-1.799-1.639
			s-1.799,0.733-1.799,1.639C619.919,1491.893,620.724,1492.626,621.718,1492.626"/>
		<path fill="#FFFAC6" d="M627.258,1492.626c0.994,0,1.799-0.733,1.799-1.637c0-0.905-0.805-1.639-1.799-1.639
			s-1.799,0.733-1.799,1.639C625.459,1491.893,626.264,1492.626,627.258,1492.626"/>
		<path fill="#FFFAC6" d="M629.252,1490.988c0.994,0,1.799-0.733,1.799-1.637c0-0.905-0.805-1.639-1.799-1.639
			s-1.799,0.733-1.799,1.639C627.453,1490.255,628.258,1490.988,629.252,1490.988"/>
		<path fill="#FFFAC6" d="M628.034,1490.988c0.994,0,1.799-0.733,1.799-1.637c0-0.905-0.805-1.639-1.799-1.639
			s-1.799,0.733-1.799,1.639C626.235,1490.255,627.04,1490.988,628.034,1490.988"/>
		<path fill="#FFFAC6" d="M630.516,1492.626c0.993,0,1.799-0.733,1.799-1.637c0-0.905-0.806-1.639-1.799-1.639
			c-0.994,0-1.8,0.733-1.8,1.639C628.716,1491.893,629.521,1492.626,630.516,1492.626"/>
		<path fill="#FFFAC6" d="M633.475,1492.626c0.994,0,1.799-0.733,1.799-1.637c0-0.905-0.805-1.639-1.799-1.639
			s-1.799,0.733-1.799,1.639C631.676,1491.893,632.48,1492.626,633.475,1492.626"/>
		<path fill="#FFFAC6" d="M638.876,1490.988c0.994,0,1.799-0.733,1.799-1.637c0-0.905-0.805-1.639-1.799-1.639
			s-1.799,0.733-1.799,1.639C637.077,1490.255,637.882,1490.988,638.876,1490.988"/>
		<path fill="#FFFAC6" d="M637.073,1491.626c0.994,0,1.799-0.733,1.799-1.637c0-0.905-0.805-1.639-1.799-1.639
			s-1.799,0.733-1.799,1.639C635.274,1490.893,636.079,1491.626,637.073,1491.626"/>
		<path fill="#FFFAC6" d="M640.033,1493.264c0.994,0,1.799-0.733,1.799-1.638c0-0.905-0.805-1.638-1.799-1.638
			s-1.799,0.732-1.799,1.638C638.234,1492.53,639.039,1493.264,640.033,1493.264"/>
		<path fill="#FFFAC6" d="M647.692,1492.626c0.994,0,1.799-0.733,1.799-1.637c0-0.905-0.805-1.639-1.799-1.639
			s-1.799,0.733-1.799,1.639C645.894,1491.893,646.698,1492.626,647.692,1492.626"/>
		<path fill="#FFFAC6" d="M650.659,1491.626c0.993,0,1.799-0.733,1.799-1.637c0-0.905-0.806-1.639-1.799-1.639
			c-0.994,0-1.8,0.733-1.8,1.639C648.859,1490.893,649.665,1491.626,650.659,1491.626"/>
		<path fill="#FFFAC6" d="M644.577,1493.264c0.994,0,1.799-0.733,1.799-1.638c0-0.905-0.805-1.638-1.799-1.638
			s-1.799,0.732-1.799,1.638C642.778,1492.53,643.583,1493.264,644.577,1493.264"/>
		<polygon fill="#8EBFBA" points="648.074,1543.188 657.674,1490.988 612.874,1490.988 622.074,1543.188 		"/>
		<line fill="none" stroke="#FFFAC6" x1="618.366" y1="1496.988" x2="626.766" y2="1543.188"/>
		<line fill="none" stroke="#FFFAC6" x1="651.966" y1="1496.988" x2="643.566" y2="1543.188"/>
		<line fill="none" stroke="#FFFAC6" x1="625.514" y1="1496.898" x2="630.554" y2="1543.278"/>
		<line fill="none" stroke="#FFFAC6" x1="645.396" y1="1496.756" x2="640.356" y2="1543.135"/>
		<line fill="none" stroke="#FFFAC6" x1="632.475" y1="1496.898" x2="634.274" y2="1543.188"/>
		<line fill="none" stroke="#FFFAC6" x1="638.377" y1="1497.022" x2="636.576" y2="1543.312"/>
		<path fill="#FFFAC6" d="M634.946,1517.088c6.036,0,10.931-2.036,10.931-4.55c0-2.513-4.895-4.55-10.931-4.55
			s-10.93,2.037-10.93,4.55C624.017,1515.052,628.91,1517.088,634.946,1517.088"/>
		<text transform="matrix(1 0 0 1 628.7158 1515.0195)" fill="#8EBFBA" font-family="'Gotham-Bold'" font-size="6">POP</text>
	</g>
	<rect x="0" y="1542.988" fill="#8EBFBA" width="1296.95" height="185.012"/>
	<rect x="0.074" y="1542.988" fill="none" stroke="#8EBFBA" width="1296" height="156"/>
	<path fill="#8EBFBA" d="M252.074,1547.988c0,0,1.8-9-19.8-14.4c-21.6-5.399,27-1.8,29.4,11.4c0,0-3.6-19.2,10.2-25.2
		s-9.6,4.2-3,25.2c0,0-1.8-12.6,11.4-16.8c0,0-8.4,0.6-4.2,16.2"/>
	<path fill="#8EBFBA" d="M969.931,1545.242c0,0-2.268-7.752,16.253-14.143c18.522-6.391-23.807,0.492-24.898,12.248
		c0,0,1.683-17.106-10.875-21.309c-12.559-4.201,8.737,2.945,4.562,21.861c0,0,0.612-11.184-11.282-13.854
		c0,0,7.41-0.118,4.925,13.88"/>
	<path fill="#8EBFBA" d="M796.57,1427.878h-2.688l8.949-59.852h2.688L796.57,1427.878z M784.049,1368.026l-5.367,59.852h-2.67
		l5.367-59.852H784.049z M767.317,1368.026l-2.459,59.852h-2.662l2.458-59.852H767.317z M750.711,1368.026l2.458,59.852h-2.663
		l-2.458-59.852H750.711z M731.372,1368.026l5.407,59.852h-2.671l-5.407-59.852H731.372z M709.738,1368.026l8.948,59.852h-2.688
		l-8.949-59.852H709.738z M706.795,1434.262l13.016,59.051h-20.216v-59.051H706.795z M725.78,1493.312l-8.828-59.051h2.689
		l8.8,58.855l-1.315,0.195H725.78z M740.021,1493.312l-5.336-59.051h2.671l5.325,58.931l-1.325,0.12H740.021z M753.192,1493.312
		l-2.425-59.051h2.663l2.422,58.997l-1.329,0.054H753.192z M761.174,1493.312l-1.662-0.067l2.423-58.983h2.662l-2.425,59.051
		H761.174z M771.816,1493.312l-1.661-0.148l5.283-58.902h2.67l-5.296,59.051H771.816z M785.442,1493.312l-1.315-0.195l8.8-58.855
		h2.69l-8.829,59.051H785.442z M793.36,1493.312l13.21-59.051h10.331v59.051H793.36z M823.285,1493.312v-59.051h16.758v-6.384
		h-32.044l13.389-59.852h3.76v-6.383h-2.332l3.927-17.556c-5.245-5.358-10.44-9.952-15.567-13.882l-4.7,31.438h-2.689l4.971-33.247
		c-6.851-4.993-13.569-8.789-20.113-11.589l-4.021,44.836h-2.671l4.115-45.886c-5.622-2.198-11.098-3.626-16.418-4.483
		l-2.068,50.369h-2.663l2.085-50.768c-6.486-0.812-12.719-0.751-18.64-0.023l2.086,50.791h-2.662l-2.071-50.423
		c-6.79,1.073-13.154,2.977-18.991,5.373l4.071,45.05h-2.671l-3.972-43.948c-7.798,3.476-14.601,7.742-20.166,11.864l4.797,32.084
		h-2.688l-4.523-30.247c-9.229,7.21-14.479,13.489-14.479,13.489l3.694,16.758h-1.3v6.383h2.707l13.192,59.852h-32.392v6.384h20.216
		v59.051v6.385l-0.198,1l-13.234,42.49h12.768l12.769-43.49h106.958l-0.027,0.001l12.769,43.489h12.77l-14.364-43.89
		L823.285,1493.312z"/>
	<path fill="#8EBFBA" d="M985.022,1427.878h-2.688l8.948-59.852h2.689L985.022,1427.878z M972.501,1368.026l-5.367,59.852h-2.67
		l5.367-59.852H972.501z M955.77,1368.026l-2.459,59.852h-2.662l2.458-59.852H955.77z M939.163,1368.026l2.457,59.852h-2.662
		l-2.458-59.852H939.163z M919.824,1368.026l5.407,59.852h-2.671l-5.408-59.852H919.824z M898.191,1368.026l8.947,59.852h-2.688
		l-8.949-59.852H898.191z M895.247,1434.262l13.016,59.051h-20.216v-59.051H895.247z M914.232,1493.312l-8.828-59.051h2.689
		l8.8,58.855l-1.315,0.195H914.232z M928.473,1493.312l-5.335-59.051h2.671l5.325,58.931l-1.325,0.12H928.473z M941.645,1493.312
		l-2.425-59.051h2.663l2.422,58.997l-1.329,0.054H941.645z M949.626,1493.312l-1.662-0.067l2.422-58.983h2.663l-2.425,59.051
		H949.626z M960.269,1493.312l-1.661-0.148l5.283-58.902h2.67l-5.296,59.051H960.269z M973.895,1493.312l-1.315-0.195l8.8-58.855
		h2.689l-8.829,59.051H973.895z M981.812,1493.312l13.21-59.051h10.331v59.051H981.812z M1011.736,1493.312v-59.051h16.759v-6.384
		h-32.044l13.389-59.852h3.76v-6.383h-2.332l3.928-17.556c-5.246-5.358-10.441-9.952-15.568-13.882l-4.7,31.438h-2.69l4.972-33.247
		c-6.851-4.993-13.569-8.789-20.113-11.589l-4.021,44.836h-2.67l4.114-45.886c-5.623-2.198-11.098-3.626-16.419-4.483l-2.067,50.369
		h-2.663l2.085-50.768c-6.486-0.812-12.72-0.751-18.64-0.023l2.086,50.791h-2.662l-2.071-50.423
		c-6.79,1.073-13.154,2.977-18.991,5.373l4.071,45.05h-2.671l-3.972-43.948c-7.798,3.476-14.601,7.742-20.166,11.864l4.798,32.084
		h-2.689l-4.523-30.247c-9.229,7.21-14.479,13.489-14.479,13.489l3.694,16.758h-1.3v6.383h2.707l13.192,59.852h-32.392v6.384h20.216
		v59.051v6.385l-0.199,1l-13.233,42.49h12.768l12.769-43.49h106.958l-0.027,0.001l12.769,43.489h12.769l-14.363-43.89
		L1011.736,1493.312z"/>
	<rect x="720.625" y="1492.875" fill="#8EBFBA" width="71.75" height="5"/>
	<rect x="909.291" y="1492.875" fill="#8EBFBA" width="71.75" height="5"/>
	<circle fill="#8EBFBA" cx="673.227" cy="1431.07" r="3.195"/>
	<circle fill="#8EBFBA" cx="839.963" cy="1431.073" r="3.188"/>
	<circle fill="#8EBFBA" cx="861.675" cy="1431.06" r="3.195"/>
	<circle fill="#8EBFBA" cx="1028.411" cy="1431.062" r="3.188"/>
</g>
<g id="Layer_4">
	<rect x="282.927" y="522.322" fill="none" width="517.375" height="481.066"/>
	<text transform="matrix(1 0 0 1 282.9272 596.8647)"><tspan x="0" y="0" fill="#FFFAC6" font-family="'Gotham-ThinItalic'" font-size="102.1134" letter-spacing="-1">2014</tspan><tspan x="0" y="109" fill="#FFFAC6" font-family="'Gotham-ThinItalic'" font-size="102.1134" letter-spacing="-1">SUMMER </tspan><tspan x="0" y="218" fill="#FFFAC6" font-family="'Gotham-ThinItalic'" font-size="102.1134" letter-spacing="-1">FILM </tspan><tspan x="0" y="327" fill="#FFFAC6" font-family="'Gotham-ThinItalic'" font-size="102.1134" letter-spacing="-1">SERIES</tspan></text>
	<text transform="matrix(1 0 0 1 0.0742 8.4883)" fill="#FFFAC6" font-family="'ApexNew-Medium'" font-size="10">v</text>
	<polyline fill="none" stroke="#FFFAC6" stroke-width="0.5" points="-158.926,15.988 168.074,120.421 364.104,298.003 
		843.104,489.973 732.669,785.864 951.074,1021.345 1210.074,881.096 1428.074,1176.988 	"/>
	<polyline fill="none" stroke="#FFFAC6" stroke-width="0.5" points="-47.926,509.988 127.216,560.045 221.893,811.096 
		94.962,889.314 163.288,1125.743 -59.926,1248.988 	"/>
	<polyline fill="none" stroke="#FFFAC6" stroke-width="0.5" points="394.074,-38.012 438.699,199.722 766.282,277.933 
		983.425,88.222 1374.074,378.988 	"/>
	<path fill="#FFFAC6" d="M732.089,788.818c1.665,0,3.016-1.35,3.016-3.015s-1.351-3.015-3.016-3.015s-3.015,1.35-3.015,3.015
		S730.424,788.818,732.089,788.818"/>
	<path fill="#FFFAC6" d="M1209.089,884.219c1.665,0,3.016-1.351,3.016-3.016c0-1.664-1.351-3.015-3.016-3.015
		s-3.015,1.351-3.015,3.015C1206.074,882.868,1207.424,884.219,1209.089,884.219"/>
	<path fill="#FFFAC6" d="M94.878,893.988c2.454,0,4.444-1.99,4.444-4.443c0-2.454-1.99-4.444-4.444-4.444
		c-2.454,0-4.444,1.99-4.444,4.444C90.434,891.998,92.424,893.988,94.878,893.988"/>
	<path fill="#FFFAC6" d="M164.46,124.56c2.643,0,4.786-2.143,4.786-4.786c0-2.644-2.143-4.786-4.786-4.786s-4.786,2.143-4.786,4.786
		C159.674,122.417,161.817,124.56,164.46,124.56"/>
	<path fill="#FFFAC6" d="M951.074,1025.788c2.454,0,4.443-1.99,4.443-4.443c0-2.454-1.989-4.444-4.443-4.444
		s-4.444,1.99-4.444,4.444C946.63,1023.798,948.62,1025.788,951.074,1025.788"/>
	<path fill="#FFFAC6" d="M982.489,91.818c1.665,0,3.015-1.35,3.015-3.015s-1.35-3.015-3.015-3.015s-3.015,1.35-3.015,3.015
		S980.824,91.818,982.489,91.818"/>
	<path fill="#FFFAC6" d="M361.089,300.418c1.665,0,3.015-1.35,3.015-3.015s-1.35-3.015-3.015-3.015s-3.015,1.35-3.015,3.015
		S359.424,300.418,361.089,300.418"/>
	<path fill="#FFFAC6" d="M842.489,494.219c1.665,0,3.015-1.35,3.015-3.015s-1.35-3.015-3.015-3.015s-3.015,1.35-3.015,3.015
		S840.824,494.219,842.489,494.219"/>
	<path fill="#FFFAC6" d="M221.215,813.619c1.665,0,3.015-1.351,3.015-3.016s-1.35-3.016-3.015-3.016s-3.015,1.351-3.015,3.016
		S219.55,813.619,221.215,813.619"/>
	<path fill="#FFFAC6" d="M993.882,428.731c1.665,0,3.015-1.35,3.015-3.015s-1.35-3.015-3.015-3.015s-3.015,1.35-3.015,3.015
		S992.217,428.731,993.882,428.731"/>
	<path fill="#FFFAC6" d="M162.318,1129.477c2.454,0,4.444-1.99,4.444-4.444s-1.99-4.443-4.444-4.443
		c-2.454,0-4.444,1.989-4.444,4.443S159.864,1129.477,162.318,1129.477"/>
	<path fill="#FFFAC6" d="M127.288,566.76c2.643,0,4.786-2.143,4.786-4.786s-2.143-4.786-4.786-4.786s-4.786,2.143-4.786,4.786
		S124.645,566.76,127.288,566.76"/>
	<path fill="#FFFAC6" d="M509.443,1041.443c2.454,0,4.444-1.99,4.444-4.443c0-2.454-1.99-4.444-4.444-4.444S505,1034.546,505,1037
		C505,1039.453,506.989,1041.443,509.443,1041.443"/>
	<path fill="#FFFAC6" d="M765.689,281.788c1.665,0,3.015-1.35,3.015-3.015s-1.35-3.015-3.015-3.015s-3.016,1.35-3.016,3.015
		S764.024,281.788,765.689,281.788"/>
	<path fill="#FFFAC6" d="M120.089,385.215c1.665,0,3.015-1.35,3.015-3.015s-1.35-3.015-3.015-3.015c-1.665,0-3.015,1.35-3.015,3.015
		S118.424,385.215,120.089,385.215"/>
	<path fill="#FFFAC6" d="M435.685,199.723c1.665,0,3.015-1.35,3.015-3.015s-1.35-3.015-3.015-3.015c-1.665,0-3.015,1.35-3.015,3.015
		S434.02,199.723,435.685,199.723"/>
	<path fill="#FFFAC6" d="M1073.562,559.588c52.19,0,94.5-42.309,94.5-94.5s-42.31-94.5-94.5-94.5c0,0,55.5,42.309,55.5,94.5
		S1073.562,559.588,1073.562,559.588"/>
	<g id="Type1" display="none">
		<g display="inline">
			<text transform="matrix(1 0 0 1 281.3325 884.4053)"><tspan x="0" y="0" fill="#FFFAC6" font-family="'Gotham-Bold'" font-size="21">M</tspan><tspan x="18.354" y="0" fill="#FFFAC6" font-family="'Gotham-Bold'" font-size="21">a</tspan><tspan x="30.303" y="0" fill="#FFFAC6" font-family="'Gotham-Bold'" font-size="21">y 22 </tspan></text>
			<text transform="matrix(1 0 0 1 362.9932 884.4053)"><tspan x="0" y="0" fill="#FFFAC6" font-family="'Gotham-Book'" font-size="21">S</tspan><tspan x="13.419" y="0" fill="#FFFAC6" font-family="'Gotham-Book'" font-size="21">h</tspan><tspan x="26.208" y="0" fill="#FFFAC6" font-family="'Gotham-Book'" font-size="21">i</tspan><tspan x="31.562" y="0" fill="#FFFAC6" font-family="'Gotham-Book'" font-size="21">p</tspan><tspan x="44.792" y="0" fill="#FFFAC6" font-family="'Gotham-Book'" font-size="21">y</tspan><tspan x="56.825" y="0" fill="#FFFAC6" font-family="'Gotham-Book'" font-size="21">a</tspan><tspan x="68.941" y="0" fill="#FFFAC6" font-family="'Gotham-Book'" font-size="21">r</tspan><tspan x="77.026" y="0" fill="#FFFAC6" font-family="'Gotham-Book'" font-size="21">d </tspan><tspan x="97.27" y="0" fill="#FFFAC6" font-family="'Gotham-Book'" font-size="21">S</tspan><tspan x="110.689" y="0" fill="#FFFAC6" font-family="'Gotham-Book'" font-size="21">h</tspan><tspan x="123.583" y="0" fill="#FFFAC6" font-family="'Gotham-Book'" font-size="21">o</tspan><tspan x="137.065" y="0" fill="#FFFAC6" font-family="'Gotham-Book'" font-size="21">r</tspan><tspan x="145.844" y="0" fill="#FFFAC6" font-family="'Gotham-Book'" font-size="21">t</tspan><tspan x="154.348" y="0" fill="#FFFAC6" font-family="'Gotham-Book'" font-size="21">s</tspan></text>
			<text transform="matrix(1 0 0 1 281.3325 914.4141)"><tspan x="0" y="0" fill="#FFFAC6" font-family="'Gotham-Bold'" font-size="21">J</tspan><tspan x="12.054" y="0" fill="#FFFAC6" font-family="'Gotham-Bold'" font-size="21">u</tspan><tspan x="25.22" y="0" fill="#FFFAC6" font-family="'Gotham-Bold'" font-size="21">n</tspan><tspan x="38.366" y="0" fill="#FFFAC6" font-family="'Gotham-Bold'" font-size="21">e 5 </tspan></text>
			<text transform="matrix(1 0 0 1 358.4219 914.4141)"><tspan x="0" y="0" fill="#FFFAC6" font-family="'Gotham-Book'" font-size="21">G</tspan><tspan x="16.464" y="0" fill="#FFFAC6" font-family="'Gotham-Book'" font-size="21">i</tspan><tspan x="21.818" y="0" fill="#FFFAC6" font-family="'Gotham-Book'" font-size="21">r</tspan><tspan x="30.071" y="0" fill="#FFFAC6" font-family="'Gotham-Book'" font-size="21">l </tspan><tspan x="41.894" y="0" fill="#FFFAC6" font-family="'Gotham-Book'" font-size="21">R</tspan><tspan x="56.908" y="0" fill="#FFFAC6" font-family="'Gotham-Book'" font-size="21">i</tspan><tspan x="62.2" y="0" fill="#FFFAC6" font-family="'Gotham-Book'" font-size="21">s</tspan><tspan x="72.384" y="0" fill="#FFFAC6" font-family="'Gotham-Book'" font-size="21">i</tspan><tspan x="77.739" y="0" fill="#FFFAC6" font-family="'Gotham-Book'" font-size="21">n</tspan><tspan x="90.548" y="0" fill="#FFFAC6" font-family="'Gotham-Book'" font-size="21">g</tspan></text>
			<text transform="matrix(1 0 0 1 281.3325 944.4238)"><tspan x="0" y="0" fill="#FFFAC6" font-family="'Gotham-Bold'" font-size="21">J</tspan><tspan x="12.054" y="0" fill="#FFFAC6" font-family="'Gotham-Bold'" font-size="21">u</tspan><tspan x="25.22" y="0" fill="#FFFAC6" font-family="'Gotham-Bold'" font-size="21">n</tspan><tspan x="38.366" y="0" fill="#FFFAC6" font-family="'Gotham-Bold'" font-size="21">e </tspan><tspan x="57.539" y="0" fill="#FFFAC6" font-family="'Gotham-Bold'" font-size="21">1</tspan><tspan x="66.379" y="0" fill="#FFFAC6" font-family="'Gotham-Bold'" font-size="21">9 </tspan></text>
			<text transform="matrix(1 0 0 1 367.9199 944.4238)"><tspan x="0" y="0" fill="#FFFAC6" font-family="'Gotham-Book'" font-size="21">T</tspan><tspan x="13.398" y="0" fill="#FFFAC6" font-family="'Gotham-Book'" font-size="21">h</tspan><tspan x="26.313" y="0" fill="#FFFAC6" font-family="'Gotham-Book'" font-size="21">e </tspan><tspan x="45.045" y="0" fill="#FFFAC6" font-family="'Gotham-Book'" font-size="21">L</tspan><tspan x="58.127" y="0" fill="#FFFAC6" font-family="'Gotham-Book'" font-size="21">a</tspan><tspan x="70.181" y="0" fill="#FFFAC6" font-family="'Gotham-Book'" font-size="21">s</tspan><tspan x="80.555" y="0" fill="#FFFAC6" font-family="'Gotham-Book'" font-size="21">t O</tspan><tspan x="113.188" y="0" fill="#FFFAC6" font-family="'Gotham-Book'" font-size="21">c</tspan><tspan x="124.821" y="0" fill="#FFFAC6" font-family="'Gotham-Book'" font-size="21">e</tspan><tspan x="137.148" y="0" fill="#FFFAC6" font-family="'Gotham-Book'" font-size="21">a</tspan><tspan x="149.266" y="0" fill="#FFFAC6" font-family="'Gotham-Book'" font-size="21">n</tspan></text>
			<text transform="matrix(1 0 0 1 281.3325 974.4326)"><tspan x="0" y="0" fill="#FFFAC6" font-family="'Gotham-Bold'" font-size="21">J</tspan><tspan x="12.054" y="0" fill="#FFFAC6" font-family="'Gotham-Bold'" font-size="21">u</tspan><tspan x="25.22" y="0" fill="#FFFAC6" font-family="'Gotham-Bold'" font-size="21">n</tspan><tspan x="38.366" y="0" fill="#FFFAC6" font-family="'Gotham-Bold'" font-size="21">e 25 </tspan></text>
			<text transform="matrix(1 0 0 1 371.5049 974.4326)"><tspan x="0" y="0" fill="#FFFAC6" font-family="'Gotham-Book'" font-size="21">A</tspan><tspan x="16.506" y="0" fill="#FFFAC6" font-family="'Gotham-Book'" font-size="21">n</tspan><tspan x="29.295" y="0" fill="#FFFAC6" font-family="'Gotham-Book'" font-size="21">i</tspan><tspan x="34.649" y="0" fill="#FFFAC6" font-family="'Gotham-Book'" font-size="21">m</tspan><tspan x="54.557" y="0" fill="#FFFAC6" font-family="'Gotham-Book'" font-size="21">a</tspan><tspan x="66.401" y="0" fill="#FFFAC6" font-family="'Gotham-Book'" font-size="21">t</tspan><tspan x="74.254" y="0" fill="#FFFAC6" font-family="'Gotham-Book'" font-size="21">ed </tspan><tspan x="106.93" y="0" fill="#FFFAC6" font-family="'Gotham-Book'" font-size="21">Sh</tspan><tspan x="133.222" y="0" fill="#FFFAC6" font-family="'Gotham-Book'" font-size="21">o</tspan><tspan x="146.703" y="0" fill="#FFFAC6" font-family="'Gotham-Book'" font-size="21">r</tspan><tspan x="155.481" y="0" fill="#FFFAC6" font-family="'Gotham-Book'" font-size="21">t</tspan><tspan x="163.985" y="0" fill="#FFFAC6" font-family="'Gotham-Book'" font-size="21">s</tspan></text>
			<text transform="matrix(1 0 0 1 281.3325 1004.4414)"><tspan x="0" y="0" fill="#FFFAC6" font-family="'Gotham-Bold'" font-size="21">J</tspan><tspan x="12.054" y="0" fill="#FFFAC6" font-family="'Gotham-Bold'" font-size="21">u</tspan><tspan x="25.136" y="0" fill="#FFFAC6" font-family="'Gotham-Bold'" font-size="21">l</tspan><tspan x="31.289" y="0" fill="#FFFAC6" font-family="'Gotham-Bold'" font-size="21">y 10</tspan></text>
			<text transform="matrix(1 0 0 1 355.6934 1004.4414)"><tspan x="0" y="0" fill="#FFFAC6" font-family="'Gotham-Book'" font-size="21"> </tspan><tspan x="6.3" y="0" fill="#FFFAC6" font-family="'Gotham-Book'" font-size="21">B</tspan><tspan x="21.545" y="0" fill="#FFFAC6" font-family="'Gotham-Book'" font-size="21">e</tspan><tspan x="33.915" y="0" fill="#FFFAC6" font-family="'Gotham-Book'" font-size="21">l</tspan><tspan x="39.164" y="0" fill="#FFFAC6" font-family="'Gotham-Book'" font-size="21">l</tspan><tspan x="44.519" y="0" fill="#FFFAC6" font-family="'Gotham-Book'" font-size="21">a </tspan><tspan x="62.977" y="0" fill="#FFFAC6" font-family="'Gotham-Book'" font-size="21">V</tspan><tspan x="78.601" y="0" fill="#FFFAC6" font-family="'Gotham-Book'" font-size="21">i</tspan><tspan x="83.746" y="0" fill="#FFFAC6" font-family="'Gotham-Book'" font-size="21">t</tspan><tspan x="92.104" y="0" fill="#FFFAC6" font-family="'Gotham-Book'" font-size="21">a</tspan></text>
			<text transform="matrix(1 0 0 1 281.3325 1034.4502)"><tspan x="0" y="0" fill="#FFFAC6" font-family="'Gotham-Bold'" font-size="21">J</tspan><tspan x="12.054" y="0" fill="#FFFAC6" font-family="'Gotham-Bold'" font-size="21">u</tspan><tspan x="25.136" y="0" fill="#FFFAC6" font-family="'Gotham-Bold'" font-size="21">l</tspan><tspan x="31.289" y="0" fill="#FFFAC6" font-family="'Gotham-Bold'" font-size="21">y </tspan><tspan x="50.188" y="0" fill="#FFFAC6" font-family="'Gotham-Bold'" font-size="21">1</tspan><tspan x="59.155" y="0" fill="#FFFAC6" font-family="'Gotham-Bold'" font-size="21">8 </tspan></text>
			<text transform="matrix(1 0 0 1 360.0283 1034.4502)"><tspan x="0" y="0" fill="#FFFAC6" font-family="'Gotham-Book'" font-size="21">S</tspan><tspan x="13.398" y="0" fill="#FFFAC6" font-family="'Gotham-Book'" font-size="21">u</tspan><tspan x="26.229" y="0" fill="#FFFAC6" font-family="'Gotham-Book'" font-size="21">m</tspan><tspan x="46.158" y="0" fill="#FFFAC6" font-family="'Gotham-Book'" font-size="21">m</tspan><tspan x="66.128" y="0" fill="#FFFAC6" font-family="'Gotham-Book'" font-size="21">e</tspan><tspan x="78.54" y="0" fill="#FFFAC6" font-family="'Gotham-Book'" font-size="21">r </tspan><tspan x="93.344" y="0" fill="#FFFAC6" font-family="'Gotham-Book'" font-size="21">B</tspan><tspan x="108.59" y="0" fill="#FFFAC6" font-family="'Gotham-Book'" font-size="21">en</tspan><tspan x="133.958" y="0" fill="#FFFAC6" font-family="'Gotham-Book'" font-size="21">e</tspan><tspan x="146.326" y="0" fill="#FFFAC6" font-family="'Gotham-Book'" font-size="21">ﬁ</tspan><tspan x="159.367" y="0" fill="#FFFAC6" font-family="'Gotham-Book'" font-size="21">t</tspan></text>
			<text transform="matrix(1 0 0 1 281.3325 1064.459)"><tspan x="0" y="0" fill="#FFFAC6" font-family="'Gotham-Bold'" font-size="21">J</tspan><tspan x="12.054" y="0" fill="#FFFAC6" font-family="'Gotham-Bold'" font-size="21">u</tspan><tspan x="25.136" y="0" fill="#FFFAC6" font-family="'Gotham-Bold'" font-size="21">l</tspan><tspan x="31.289" y="0" fill="#FFFAC6" font-family="'Gotham-Bold'" font-size="21">y </tspan><tspan x="50.188" y="0" fill="#FFFAC6" font-family="'Gotham-Bold'" font-size="21">1</tspan><tspan x="59.029" y="0" fill="#FFFAC6" font-family="'Gotham-Bold'" font-size="21">9 </tspan></text>
			<text transform="matrix(1 0 0 1 360.5449 1064.459)"><tspan x="0" y="0" fill="#FFFAC6" font-family="'Gotham-Book'" font-size="21">T</tspan><tspan x="13.398" y="0" fill="#FFFAC6" font-family="'Gotham-Book'" font-size="21">h</tspan><tspan x="26.313" y="0" fill="#FFFAC6" font-family="'Gotham-Book'" font-size="21">e </tspan><tspan x="45.045" y="0" fill="#FFFAC6" font-family="'Gotham-Book'" font-size="21">C</tspan><tspan x="60.438" y="0" fill="#FFFAC6" font-family="'Gotham-Book'" font-size="21">r</tspan><tspan x="68.691" y="0" fill="#FFFAC6" font-family="'Gotham-Book'" font-size="21">a</tspan><tspan x="80.745" y="0" fill="#FFFAC6" font-family="'Gotham-Book'" font-size="21">s</tspan><tspan x="91.034" y="0" fill="#FFFAC6" font-family="'Gotham-Book'" font-size="21">h </tspan><tspan x="110.27" y="0" fill="#FFFAC6" font-family="'Gotham-Book'" font-size="21">R</tspan><tspan x="125.18" y="0" fill="#FFFAC6" font-family="'Gotham-Book'" font-size="21">e</tspan><tspan x="137.611" y="0" fill="#FFFAC6" font-family="'Gotham-Book'" font-size="21">e</tspan><tspan x="149.979" y="0" fill="#FFFAC6" font-family="'Gotham-Book'" font-size="21">l</tspan></text>
			<text transform="matrix(1 0 0 1 281.3325 1094.4688)"><tspan x="0" y="0" fill="#FFFAC6" font-family="'Gotham-Bold'" font-size="21">J</tspan><tspan x="12.054" y="0" fill="#FFFAC6" font-family="'Gotham-Bold'" font-size="21">u</tspan><tspan x="25.136" y="0" fill="#FFFAC6" font-family="'Gotham-Bold'" font-size="21">l</tspan><tspan x="31.289" y="0" fill="#FFFAC6" font-family="'Gotham-Bold'" font-size="21">y </tspan><tspan x="50.188" y="0" fill="#FFFAC6" font-family="'Gotham-Bold'" font-size="21">2</tspan><tspan x="62.851" y="0" fill="#FFFAC6" font-family="'Gotham-Bold'" font-size="21">7 </tspan></text>
			<text transform="matrix(1 0 0 1 363.4683 1094.4688)"><tspan x="0" y="0" fill="#FFFAC6" font-family="'Gotham-Book'" font-size="21">M</tspan><tspan x="18.312" y="0" fill="#FFFAC6" font-family="'Gotham-Book'" font-size="21">u</tspan><tspan x="31.122" y="0" fill="#FFFAC6" font-family="'Gotham-Book'" font-size="21">s</tspan><tspan x="41.307" y="0" fill="#FFFAC6" font-family="'Gotham-Book'" font-size="21">i</tspan><tspan x="46.619" y="0" fill="#FFFAC6" font-family="'Gotham-Book'" font-size="21">c</tspan><tspan x="58.526" y="0" fill="#FFFAC6" font-family="'Gotham-Book'" font-size="21">w</tspan><tspan x="76.041" y="0" fill="#FFFAC6" font-family="'Gotham-Book'" font-size="21">o</tspan><tspan x="89.543" y="0" fill="#FFFAC6" font-family="'Gotham-Book'" font-size="21">o</tspan><tspan x="103.088" y="0" fill="#FFFAC6" font-family="'Gotham-Book'" font-size="21">d</tspan></text>
			<text transform="matrix(1 0 0 1 281.3325 1124.4775)"><tspan x="0" y="0" fill="#FFFAC6" font-family="'Gotham-Bold'" font-size="21">J</tspan><tspan x="12.054" y="0" fill="#FFFAC6" font-family="'Gotham-Bold'" font-size="21">u</tspan><tspan x="25.136" y="0" fill="#FFFAC6" font-family="'Gotham-Bold'" font-size="21">l</tspan><tspan x="31.289" y="0" fill="#FFFAC6" font-family="'Gotham-Bold'" font-size="21">y </tspan><tspan x="50.188" y="0" fill="#FFFAC6" font-family="'Gotham-Bold'" font-size="21">2</tspan><tspan x="63.418" y="0" fill="#FFFAC6" font-family="'Gotham-Bold'" font-size="21">8 </tspan></text>
			<text transform="matrix(1 0 0 1 364.2788 1124.4775)"><tspan x="0" y="0" fill="#FFFAC6" font-family="'Gotham-Book'" font-size="21">M</tspan><tspan x="18.312" y="0" fill="#FFFAC6" font-family="'Gotham-Book'" font-size="21">u</tspan><tspan x="31.122" y="0" fill="#FFFAC6" font-family="'Gotham-Book'" font-size="21">s</tspan><tspan x="41.37" y="0" fill="#FFFAC6" font-family="'Gotham-Book'" font-size="21">c</tspan><tspan x="53.109" y="0" fill="#FFFAC6" font-family="'Gotham-Book'" font-size="21">l</tspan><tspan x="58.505" y="0" fill="#FFFAC6" font-family="'Gotham-Book'" font-size="21">e </tspan><tspan x="77.237" y="0" fill="#FFFAC6" font-family="'Gotham-Book'" font-size="21">Sh</tspan><tspan x="103.529" y="0" fill="#FFFAC6" font-family="'Gotham-Book'" font-size="21">o</tspan><tspan x="117.011" y="0" fill="#FFFAC6" font-family="'Gotham-Book'" font-size="21">a</tspan><tspan x="129.065" y="0" fill="#FFFAC6" font-family="'Gotham-Book'" font-size="21">l</tspan><tspan x="134.377" y="0" fill="#FFFAC6" font-family="'Gotham-Book'" font-size="21">s</tspan></text>
			<text transform="matrix(1 0 0 1 281.3325 1154.4863)"><tspan x="0" y="0" fill="#FFFAC6" font-family="'Gotham-Bold'" font-size="21">A</tspan><tspan x="16.254" y="0" fill="#FFFAC6" font-family="'Gotham-Bold'" font-size="21">u</tspan><tspan x="29.357" y="0" fill="#FFFAC6" font-family="'Gotham-Bold'" font-size="21">g 8 </tspan></text>
			<text transform="matrix(1 0 0 1 350.7124 1154.4863)"><tspan x="0" y="0" fill="#FFFAC6" font-family="'Gotham-Book'" font-size="21">R</tspan><tspan x="15.057" y="0" fill="#FFFAC6" font-family="'Gotham-Book'" font-size="21">u</tspan><tspan x="27.888" y="0" fill="#FFFAC6" font-family="'Gotham-Book'" font-size="21">n</tspan><tspan x="40.782" y="0" fill="#FFFAC6" font-family="'Gotham-Book'" font-size="21">n</tspan><tspan x="53.571" y="0" fill="#FFFAC6" font-family="'Gotham-Book'" font-size="21">i</tspan><tspan x="58.925" y="0" fill="#FFFAC6" font-family="'Gotham-Book'" font-size="21">n</tspan><tspan x="71.756" y="0" fill="#FFFAC6" font-family="'Gotham-Book'" font-size="21">g </tspan><tspan x="92" y="0" fill="#FFFAC6" font-family="'Gotham-Book'" font-size="21">W</tspan><tspan x="115.1" y="0" fill="#FFFAC6" font-family="'Gotham-Book'" font-size="21">i</tspan><tspan x="120.35" y="0" fill="#FFFAC6" font-family="'Gotham-Book'" font-size="21">l</tspan><tspan x="125.725" y="0" fill="#FFFAC6" font-family="'Gotham-Book'" font-size="21">d</tspan></text>
			<text transform="matrix(1 0 0 1 281.3325 1184.4951)"><tspan x="0" y="0" fill="#FFFAC6" font-family="'Gotham-Bold'" font-size="21">A</tspan><tspan x="16.254" y="0" fill="#FFFAC6" font-family="'Gotham-Bold'" font-size="21">u</tspan><tspan x="29.357" y="0" fill="#FFFAC6" font-family="'Gotham-Bold'" font-size="21">g </tspan><tspan x="49.832" y="0" fill="#FFFAC6" font-family="'Gotham-Bold'" font-size="21">1</tspan><tspan x="58.631" y="0" fill="#FFFAC6" font-family="'Gotham-Bold'" font-size="21">5 </tspan></text>
			<text transform="matrix(1 0 0 1 359.499 1184.4951)"><tspan x="0" y="0" fill="#FFFAC6" font-family="'Gotham-Book'" font-size="21">T</tspan><tspan x="13.398" y="0" fill="#FFFAC6" font-family="'Gotham-Book'" font-size="21">h</tspan><tspan x="26.313" y="0" fill="#FFFAC6" font-family="'Gotham-Book'" font-size="21">e </tspan><tspan x="45.045" y="0" fill="#FFFAC6" font-family="'Gotham-Book'" font-size="21">S</tspan><tspan x="58.443" y="0" fill="#FFFAC6" font-family="'Gotham-Book'" font-size="21">u</tspan><tspan x="71.274" y="0" fill="#FFFAC6" font-family="'Gotham-Book'" font-size="21">m</tspan><tspan x="91.203" y="0" fill="#FFFAC6" font-family="'Gotham-Book'" font-size="21">m</tspan><tspan x="111.026" y="0" fill="#FFFAC6" font-family="'Gotham-Book'" font-size="21">i</tspan><tspan x="116.192" y="0" fill="#FFFAC6" font-family="'Gotham-Book'" font-size="21">t</tspan></text>
			<text transform="matrix(1 0 0 1 281.3325 1214.5039)"><tspan x="0" y="0" fill="#FFFAC6" font-family="'Gotham-Bold'" font-size="21">A</tspan><tspan x="16.254" y="0" fill="#FFFAC6" font-family="'Gotham-Bold'" font-size="21">u</tspan><tspan x="29.357" y="0" fill="#FFFAC6" font-family="'Gotham-Bold'" font-size="21">g </tspan><tspan x="49.832" y="0" fill="#FFFAC6" font-family="'Gotham-Bold'" font-size="21">2</tspan><tspan x="62.873" y="0" fill="#FFFAC6" font-family="'Gotham-Bold'" font-size="21">0 </tspan></text>
			<text transform="matrix(1 0 0 1 365.8345 1214.5039)"><tspan x="0" y="0" fill="#FFFAC6" font-family="'Gotham-Book'" font-size="21">R</tspan><tspan x="15.057" y="0" fill="#FFFAC6" font-family="'Gotham-Book'" font-size="21">u</tspan><tspan x="27.888" y="0" fill="#FFFAC6" font-family="'Gotham-Book'" font-size="21">n</tspan><tspan x="40.782" y="0" fill="#FFFAC6" font-family="'Gotham-Book'" font-size="21">n</tspan><tspan x="53.571" y="0" fill="#FFFAC6" font-family="'Gotham-Book'" font-size="21">i</tspan><tspan x="58.925" y="0" fill="#FFFAC6" font-family="'Gotham-Book'" font-size="21">n</tspan><tspan x="71.756" y="0" fill="#FFFAC6" font-family="'Gotham-Book'" font-size="21">g f</tspan><tspan x="99.707" y="0" fill="#FFFAC6" font-family="'Gotham-Book'" font-size="21">r</tspan><tspan x="107.729" y="0" fill="#FFFAC6" font-family="'Gotham-Book'" font-size="21">o</tspan><tspan x="121.231" y="0" fill="#FFFAC6" font-family="'Gotham-Book'" font-size="21">m </tspan><tspan x="147.501" y="0" fill="#FFFAC6" font-family="'Gotham-Book'" font-size="21">C</tspan><tspan x="162.895" y="0" fill="#FFFAC6" font-family="'Gotham-Book'" font-size="21">r</tspan><tspan x="171.148" y="0" fill="#FFFAC6" font-family="'Gotham-Book'" font-size="21">a</tspan><tspan x="182.95" y="0" fill="#FFFAC6" font-family="'Gotham-Book'" font-size="21">z</tspan><tspan x="194.751" y="0" fill="#FFFAC6" font-family="'Gotham-Book'" font-size="21">y</tspan></text>
			<text transform="matrix(1 0 0 1 281.3325 1244.5127)"><tspan x="0" y="0" fill="#FFFAC6" font-family="'Gotham-Bold'" font-size="21">A</tspan><tspan x="16.254" y="0" fill="#FFFAC6" font-family="'Gotham-Bold'" font-size="21">u</tspan><tspan x="29.357" y="0" fill="#FFFAC6" font-family="'Gotham-Bold'" font-size="21">g </tspan><tspan x="49.832" y="0" fill="#FFFAC6" font-family="'Gotham-Bold'" font-size="21">2</tspan><tspan x="63.062" y="0" fill="#FFFAC6" font-family="'Gotham-Bold'" font-size="21">8 </tspan></text>
			<text transform="matrix(1 0 0 1 363.9448 1244.5127)"><tspan x="0" y="0" fill="#FFFAC6" font-family="'Gotham-Book'" font-size="21">E</tspan><tspan x="13.755" y="0" fill="#FFFAC6" font-family="'Gotham-Book'" font-size="21">m</tspan><tspan x="33.684" y="0" fill="#FFFAC6" font-family="'Gotham-Book'" font-size="21">p</tspan><tspan x="47.25" y="0" fill="#FFFAC6" font-family="'Gotham-Book'" font-size="21">t</tspan><tspan x="55.88" y="0" fill="#FFFAC6" font-family="'Gotham-Book'" font-size="21">y</tspan><tspan x="67.997" y="0" fill="#FFFAC6" font-family="'Gotham-Book'" font-size="21">i</tspan><tspan x="73.352" y="0" fill="#FFFAC6" font-family="'Gotham-Book'" font-size="21">n</tspan><tspan x="86.162" y="0" fill="#FFFAC6" font-family="'Gotham-Book'" font-size="21">g </tspan><tspan x="106.405" y="0" fill="#FFFAC6" font-family="'Gotham-Book'" font-size="21">t</tspan><tspan x="114.511" y="0" fill="#FFFAC6" font-family="'Gotham-Book'" font-size="21">h</tspan><tspan x="127.425" y="0" fill="#FFFAC6" font-family="'Gotham-Book'" font-size="21">e </tspan><tspan x="146.157" y="0" fill="#FFFAC6" font-family="'Gotham-Book'" font-size="21">S</tspan><tspan x="159.555" y="0" fill="#FFFAC6" font-family="'Gotham-Book'" font-size="21">ki</tspan><tspan x="176.69" y="0" fill="#FFFAC6" font-family="'Gotham-Book'" font-size="21">e</tspan><tspan x="188.996" y="0" fill="#FFFAC6" font-family="'Gotham-Book'" font-size="21">s</tspan></text>
			<text transform="matrix(1 0 0 1 281.3325 1274.5225)"><tspan x="0" y="0" fill="#FFFAC6" font-family="'Gotham-Bold'" font-size="21">Se</tspan><tspan x="26.313" y="0" fill="#FFFAC6" font-family="'Gotham-Bold'" font-size="21">p</tspan><tspan x="40.446" y="0" fill="#FFFAC6" font-family="'Gotham-Bold'" font-size="21">t 5 </tspan></text>
			<text transform="matrix(1 0 0 1 356.3047 1274.5225)"><tspan x="0" y="0" fill="#FFFAC6" font-family="'Gotham-Book'" font-size="21">D</tspan><tspan x="16.359" y="0" fill="#FFFAC6" font-family="'Gotham-Book'" font-size="21">i</tspan><tspan x="21.713" y="0" fill="#FFFAC6" font-family="'Gotham-Book'" font-size="21">n</tspan><tspan x="34.628" y="0" fill="#FFFAC6" font-family="'Gotham-Book'" font-size="21">er </tspan><tspan x="61.865" y="0" fill="#FFFAC6" font-family="'Gotham-Book'" font-size="21">E</tspan><tspan x="75.62" y="0" fill="#FFFAC6" font-family="'Gotham-Book'" font-size="21">n </tspan><tspan x="94.856" y="0" fill="#FFFAC6" font-family="'Gotham-Book'" font-size="21">B</tspan><tspan x="110.081" y="0" fill="#FFFAC6" font-family="'Gotham-Book'" font-size="21">l</tspan><tspan x="115.435" y="0" fill="#FFFAC6" font-family="'Gotham-Book'" font-size="21">an</tspan><tspan x="140.445" y="0" fill="#FFFAC6" font-family="'Gotham-Book'" font-size="21">c</tspan></text>
			<text transform="matrix(1 0 0 1 281.3325 1304.5312)"><tspan x="0" y="0" fill="#FFFAC6" font-family="'Gotham-Bold'" font-size="21">Se</tspan><tspan x="26.313" y="0" fill="#FFFAC6" font-family="'Gotham-Bold'" font-size="21">p</tspan><tspan x="40.446" y="0" fill="#FFFAC6" font-family="'Gotham-Bold'" font-size="21">t </tspan><tspan x="55.46" y="0" fill="#FFFAC6" font-family="'Gotham-Bold'" font-size="21">1</tspan><tspan x="64.301" y="0" fill="#FFFAC6" font-family="'Gotham-Bold'" font-size="21">9 </tspan></text>
			<text transform="matrix(1 0 0 1 365.8052 1304.5312)"><tspan x="0" y="0" fill="#FFFAC6" font-family="'Gotham-Book'" font-size="21">R</tspan><tspan x="14.91" y="0" fill="#FFFAC6" font-family="'Gotham-Book'" font-size="21">ed </tspan><tspan x="47.585" y="0" fill="#FFFAC6" font-family="'Gotham-Book'" font-size="21">O</tspan><tspan x="65.477" y="0" fill="#FFFAC6" font-family="'Gotham-Book'" font-size="21">bs</tspan><tspan x="89.458" y="0" fill="#FFFAC6" font-family="'Gotham-Book'" font-size="21">es</tspan><tspan x="112.096" y="0" fill="#FFFAC6" font-family="'Gotham-Book'" font-size="21">s</tspan><tspan x="122.281" y="0" fill="#FFFAC6" font-family="'Gotham-Book'" font-size="21">i</tspan><tspan x="127.593" y="0" fill="#FFFAC6" font-family="'Gotham-Book'" font-size="21">o</tspan><tspan x="141.075" y="0" fill="#FFFAC6" font-family="'Gotham-Book'" font-size="21">n</tspan></text>
		</g>
	</g>
	<g id="Type_2" display="none">
		<rect x="281.333" y="866.556" display="inline" fill="none" width="424.48" height="458.978"/>
		<text transform="matrix(1 0 0 1 281.3325 881.8857)" display="inline"><tspan x="0" y="0" fill="#FFFAC6" font-family="'Gotham-Black'" font-size="21">05.22 </tspan><tspan x="63.753" y="0" fill="#FFFAC6" font-family="'Gotham-Medium'" font-size="21">Shipyard Shorts</tspan><tspan x="0" y="30" fill="#FFFAC6" font-family="'Gotham-Black'" font-size="21">06.05 </tspan><tspan x="63.753" y="30" fill="#FFFAC6" font-family="'Gotham-Medium'" font-size="21">Girl Rising</tspan><tspan x="0" y="60" fill="#FFFAC6" font-family="'Gotham-Black'" font-size="21">06.19 </tspan><tspan x="63.753" y="60" fill="#FFFAC6" font-family="'Gotham-Medium'" font-size="21">The Last Ocean</tspan><tspan x="0" y="90" fill="#FFFAC6" font-family="'Gotham-Black'" font-size="21">06.25 </tspan><tspan x="63.753" y="90" fill="#FFFAC6" font-family="'Gotham-Medium'" font-size="21">Animated Shorts</tspan><tspan x="0" y="120" fill="#FFFAC6" font-family="'Gotham-Black'" font-size="21">07.10 </tspan><tspan x="63.753" y="120" fill="#FFFAC6" font-family="'Gotham-Medium'" font-size="21">Bella Vita</tspan><tspan x="0" y="150" fill="#FFFAC6" font-family="'Gotham-Black'" font-size="21">07.18 </tspan><tspan x="63.753" y="150" fill="#FFFAC6" font-family="'Gotham-Medium'" font-size="21">Summer Benefit</tspan><tspan x="0" y="180" fill="#FFFAC6" font-family="'Gotham-Black'" font-size="21">07.27 </tspan><tspan x="63.753" y="180" fill="#FFFAC6" font-family="'Gotham-Medium'" font-size="21">Musicwood</tspan><tspan x="0" y="210" fill="#FFFAC6" font-family="'Gotham-Black'" font-size="21">07.28 </tspan><tspan x="63.753" y="210" fill="#FFFAC6" font-family="'Gotham-Medium'" font-size="21">Muscle Shoals</tspan><tspan x="0" y="240" fill="#FFFAC6" font-family="'Gotham-Black'" font-size="21">08.08 </tspan><tspan x="63.753" y="240" fill="#FFFAC6" font-family="'Gotham-Medium'" font-size="21">Running Wild</tspan><tspan x="0" y="270" fill="#FFFAC6" font-family="'Gotham-Black'" font-size="21">08.15 </tspan><tspan x="63.753" y="270" fill="#FFFAC6" font-family="'Gotham-Medium'" font-size="21">The Summit</tspan><tspan x="0" y="300" fill="#FFFAC6" font-family="'Gotham-Black'" font-size="21">08.20 </tspan><tspan x="63.753" y="300" fill="#FFFAC6" font-family="'Gotham-Medium'" font-size="21">Running from Crazy</tspan><tspan x="0" y="330" fill="#FFFAC6" font-family="'Gotham-Black'" font-size="21">08.28 </tspan><tspan x="63.753" y="330" fill="#FFFAC6" font-family="'Gotham-Medium'" font-size="21">Emptying the Skies</tspan><tspan x="0" y="360" fill="#FFFAC6" font-family="'Gotham-Black'" font-size="21">09.05 </tspan><tspan x="63.753" y="360" fill="#FFFAC6" font-family="'Gotham-Medium'" font-size="21">Diner en Blanc</tspan><tspan x="0" y="390" fill="#FFFAC6" font-family="'Gotham-Black'" font-size="21">09.19 </tspan><tspan x="63.753" y="390" fill="#FFFAC6" font-family="'Gotham-Medium'" font-size="21">Red Obsession</tspan></text>
	</g>
	<g id="Type3" display="none">
		<rect x="281.333" y="866.556" display="inline" fill="none" width="424.48" height="458.978"/>
		<text transform="matrix(1 0 0 1 281.3325 881.8857)" display="inline"><tspan x="0" y="0" fill="#FFFAC6" font-family="'Gotham-Black'" font-size="21">22 May </tspan><tspan x="82.633" y="0" fill="#FFFAC6" font-family="'Gotham-Medium'" font-size="21">Shipyard Shorts</tspan><tspan x="0" y="30" fill="#FFFAC6" font-family="'Gotham-Black'" font-size="21">05 June </tspan><tspan x="90.003" y="30" fill="#FFFAC6" font-family="'Gotham-Medium'" font-size="21">Girl Rising</tspan><tspan x="0" y="60" fill="#FFFAC6" font-family="'Gotham-Black'" font-size="21">19 June </tspan><tspan x="90.003" y="60" fill="#FFFAC6" font-family="'Gotham-Medium'" font-size="21">The Last Ocean</tspan><tspan x="0" y="90" fill="#FFFAC6" font-family="'Gotham-Black'" font-size="21">25 June </tspan><tspan x="90.003" y="90" fill="#FFFAC6" font-family="'Gotham-Medium'" font-size="21">Animated Shorts</tspan><tspan x="0" y="120" fill="#FFFAC6" font-family="'Gotham-Black'" font-size="21">10 July </tspan><tspan x="83.431" y="120" fill="#FFFAC6" font-family="'Gotham-Medium'" font-size="21">Bella Vita</tspan><tspan x="0" y="150" fill="#FFFAC6" font-family="'Gotham-Black'" font-size="21">18 July </tspan><tspan x="83.431" y="150" fill="#FFFAC6" font-family="'Gotham-Medium'" font-size="21">Summer Benefit</tspan><tspan x="0" y="180" fill="#FFFAC6" font-family="'Gotham-Black'" font-size="21">27 July </tspan><tspan x="83.431" y="180" fill="#FFFAC6" font-family="'Gotham-Medium'" font-size="21">Musicwood</tspan><tspan x="0" y="210" fill="#FFFAC6" font-family="'Gotham-Black'" font-size="21">28 July </tspan><tspan x="83.431" y="210" fill="#FFFAC6" font-family="'Gotham-Medium'" font-size="21">Muscle Shoals</tspan><tspan x="0" y="240" fill="#FFFAC6" font-family="'Gotham-Black'" font-size="21">08 Aug </tspan><tspan x="82.885" y="240" fill="#FFFAC6" font-family="'Gotham-Medium'" font-size="21">Running Wild</tspan><tspan x="0" y="270" fill="#FFFAC6" font-family="'Gotham-Black'" font-size="21">15 Aug </tspan><tspan x="82.885" y="270" fill="#FFFAC6" font-family="'Gotham-Medium'" font-size="21">The Summit</tspan><tspan x="0" y="300" fill="#FFFAC6" font-family="'Gotham-Black'" font-size="21">20 Aug </tspan><tspan x="82.885" y="300" fill="#FFFAC6" font-family="'Gotham-Medium'" font-size="21">Running from Crazy</tspan><tspan x="0" y="330" fill="#FFFAC6" font-family="'Gotham-Black'" font-size="21">28 Aug </tspan><tspan x="82.885" y="330" fill="#FFFAC6" font-family="'Gotham-Medium'" font-size="21">Emptying the Skies</tspan><tspan x="0" y="360" fill="#FFFAC6" font-family="'Gotham-Black'" font-size="21">05 Sept </tspan><tspan x="88.471" y="360" fill="#FFFAC6" font-family="'Gotham-Medium'" font-size="21">Diner en Blanc</tspan><tspan x="0" y="390" fill="#FFFAC6" font-family="'Gotham-Black'" font-size="21">19 Sept </tspan><tspan x="88.471" y="390" fill="#FFFAC6" font-family="'Gotham-Medium'" font-size="21">Red Obsession</tspan></text>
	</g>
	<g id="Layer_8">
		<rect x="35.715" y="1578.623" fill="none" width="1224.57" height="113.281"/>
		<text transform="matrix(1 0 0 1 108.9277 1593.9531)"><tspan x="0" y="0" fill="#FFFAC6" font-family="'Gotham-Black'" font-size="21">June 26 </tspan><tspan x="90.003" y="0" fill="#FFFAC6" font-family="'Gotham-Medium'" font-size="21">Endless Abilities </tspan><tspan x="272.197" y="0" fill="#FFFAC6" font-family="'Gotham-Black'" font-size="21">• July 10 </tspan><tspan x="372.679" y="0" fill="#FFFAC6" font-family="'Gotham-Medium'" font-size="21">Bella Vita</tspan><tspan x="475.116" y="0" fill="#FFFAC6" font-family="'Gotham-Black'" font-size="21"> • July 18 </tspan><tspan x="582.023" y="0" fill="#FFFAC6" font-family="'Gotham-Medium'" font-size="21">To Be Determined </tspan><tspan x="783.115" y="0" fill="#FFFAC6" font-family="'Gotham-Black'" font-size="21">• July 25 </tspan><tspan x="883.598" y="0" fill="#FFFAC6" font-family="'Gotham-Medium'" font-size="21">To Be Determined</tspan><tspan x="136.792" y="30" fill="#FFFAC6" font-family="'Gotham-Black'" font-size="21">July 26 </tspan><tspan x="220.222" y="30" fill="#FFFAC6" font-family="'Gotham-Medium'" font-size="21">To Be Determined</tspan><tspan x="414.888" y="30" fill="#FFFAC6" font-family="'Gotham-Black'" font-size="21">• July 27 </tspan><tspan x="515.371" y="30" fill="#FFFAC6" font-family="'Gotham-Medium'" font-size="21">To Be Determined </tspan><tspan x="716.463" y="30" fill="#FFFAC6" font-family="'Gotham-Black'" font-size="21">• July 31 </tspan><tspan x="816.945" y="30" fill="#FFFAC6" font-family="'Gotham-Medium'" font-size="21">Alive Inside </tspan><tspan x="28.119" y="60" fill="#FFFAC6" font-family="'Gotham-Black'" font-size="21">August 14 </tspan><tspan x="144.541" y="60" fill="#FFFAC6" font-family="'Gotham-Medium'" font-size="21">Battered Bastards of Baseball </tspan><tspan x="469.281" y="60" fill="#FFFAC6" font-family="'Gotham-Black'" font-size="21">• August 21 </tspan><tspan x="602.756" y="60" fill="#FFFAC6" font-family="'Gotham-Medium'" font-size="21">Dior et Moi </tspan><tspan x="727.387" y="60" fill="#FFFAC6" font-family="'Gotham-Black'" font-size="21">August 28 </tspan><tspan x="843.809" y="60" fill="#FFFAC6" font-family="'Gotham-Medium'" font-size="21">Emptying the Skies </tspan><tspan x="369.1" y="90" fill="#FFFAC6" font-family="'Gotham-Black'" font-size="21">September 4 </tspan><tspan x="514.501" y="90" fill="#FFFAC6" font-family="'Gotham-Medium'" font-size="21">To Be Determined</tspan></text>
	</g>
	<path fill="#FFFAC6" d="M700.739,481.479c-1.135,0-2.056,0.92-2.056,2.055s0.921,2.055,2.056,2.055c1.134,0,2.054-0.92,2.054-2.055
		S701.873,481.479,700.739,481.479"/>
	<path fill="#FFFAC6" d="M375.698,416.472c-1.135,0-2.055,0.92-2.055,2.055c0,1.134,0.92,2.055,2.055,2.055s2.055-0.921,2.055-2.055
		C377.753,417.392,376.833,416.472,375.698,416.472"/>
	<path fill="#FFFAC6" d="M1134.952,409.813c-1.673,0-3.029,1.357-3.029,3.028c0,1.673,1.356,3.028,3.029,3.028
		c1.672,0,3.027-1.355,3.027-3.028C1137.979,411.171,1136.624,409.813,1134.952,409.813"/>
	<path fill="#FFFAC6" d="M1148.164,1087.264c-1.801,0-3.261,1.46-3.261,3.261c0,1.802,1.46,3.262,3.261,3.262
		s3.262-1.46,3.262-3.262C1151.426,1088.724,1149.965,1087.264,1148.164,1087.264"/>
	<path fill="#FFFAC6" d="M551.517,320.003c-1.672,0-3.027,1.355-3.027,3.027s1.355,3.028,3.027,3.028s3.028-1.356,3.028-3.028
		S553.188,320.003,551.517,320.003"/>
	<path fill="#FFFAC6" d="M282.999,100.701c-1.134,0-2.054,0.92-2.054,2.054c0,1.135,0.92,2.055,2.054,2.055
		c1.135,0,2.054-0.92,2.054-2.055C285.052,101.621,284.133,100.701,282.999,100.701"/>
	<path fill="#FFFAC6" d="M932.999,695.938c-1.135,0-2.055,0.92-2.055,2.055s0.92,2.055,2.055,2.055s2.055-0.92,2.055-2.055
		S934.134,695.938,932.999,695.938"/>
	<path fill="#FFFAC6" d="M573.648,478.055c-1.135,0-2.054,0.92-2.054,2.055s0.919,2.055,2.054,2.055s2.054-0.92,2.054-2.055
		S574.783,478.055,573.648,478.055"/>
	<path fill="#FFFAC6" d="M1028.419,457.766c-1.135,0-2.055,0.921-2.055,2.055c0,1.135,0.92,2.056,2.055,2.056
		s2.055-0.921,2.055-2.056C1030.474,458.687,1029.554,457.766,1028.419,457.766"/>
	<path fill="#FFFAC6" d="M370.846,981.777c-1.135,0-2.055,0.92-2.055,2.055s0.92,2.055,2.055,2.055s2.054-0.92,2.054-2.055
		S371.981,981.777,370.846,981.777"/>
	<path fill="#FFFAC6" d="M1088.996,249.347c-1.673,0-3.028,1.355-3.028,3.027c0,1.673,1.355,3.028,3.028,3.028
		c1.672,0,3.028-1.355,3.028-3.028C1092.024,250.702,1090.668,249.347,1088.996,249.347"/>
	<path fill="#FFFAC6" d="M1112.866,632.796c-1.801,0-3.262,1.46-3.262,3.261c0,1.801,1.461,3.261,3.262,3.261
		s3.262-1.46,3.262-3.261C1116.128,634.256,1114.667,632.796,1112.866,632.796"/>
	<path fill="#FFFAC6" d="M852.455,309.335c-1.672,0-3.027,1.355-3.027,3.027s1.355,3.028,3.027,3.028
		c1.673,0,3.028-1.356,3.028-3.028S854.128,309.335,852.455,309.335"/>
	<path fill="#FFFAC6" d="M677.843,826.983c-1.135,0-2.054,0.92-2.054,2.055s0.919,2.055,2.054,2.055s2.055-0.92,2.055-2.055
		S678.978,826.983,677.843,826.983"/>
	<path fill="#FFFAC6" d="M1117.772,756.506c-1.135,0-2.055,0.92-2.055,2.054c0,1.135,0.92,2.055,2.055,2.055
		c1.134,0,2.055-0.92,2.055-2.055C1119.827,757.426,1118.906,756.506,1117.772,756.506"/>
	<path fill="#FFFAC6" d="M902.717,882.905c-1.135,0-2.055,0.92-2.055,2.055s0.92,2.055,2.055,2.055s2.055-0.92,2.055-2.055
		S903.852,882.905,902.717,882.905"/>
	<path fill="#FFFAC6" d="M988.876,1213.218c0-1.932-1.564-3.499-3.496-3.499s-3.498,1.567-3.498,3.499
		c0,1.931,1.566,3.496,3.498,3.496S988.876,1215.148,988.876,1213.218"/>
	<path fill="#FFFAC6" d="M907.629,16.247c0-1.932-1.566-3.498-3.498-3.498c-1.93,0-3.498,1.566-3.498,3.498s1.568,3.497,3.498,3.497
		C906.062,19.744,907.629,18.178,907.629,16.247"/>
	<path fill="#FFFAC6" d="M414.346,1152.039c0-2.848-2.311-5.158-5.156-5.158c-2.848,0-5.154,2.311-5.154,5.158
		c0,2.846,2.307,5.152,5.154,5.152C412.035,1157.191,414.346,1154.885,414.346,1152.039"/>
	<path fill="#FFFAC6" d="M26.449,1227.981c0-3.066-2.484-5.551-5.551-5.551s-5.551,2.484-5.551,5.551
		c0,3.064,2.484,5.553,5.551,5.553S26.449,1231.046,26.449,1227.981"/>
	<path fill="#FFFAC6" d="M1071.844,315.536c0-2.847-2.309-5.153-5.154-5.153s-5.154,2.307-5.154,5.153
		c0,2.846,2.309,5.154,5.154,5.154S1071.844,318.381,1071.844,315.536"/>
	<path fill="#FFFAC6" d="M176.971,270.361c0-1.93-1.566-3.495-3.496-3.495c-1.932,0-3.498,1.565-3.498,3.495
		c0,1.932,1.566,3.496,3.498,3.496C175.404,273.857,176.971,272.292,176.971,270.361"/>
	<path fill="#FFFAC6" d="M230.439,999.897c0-1.932-1.564-3.498-3.496-3.498s-3.498,1.566-3.498,3.498s1.566,3.498,3.498,3.498
		S230.439,1001.829,230.439,999.897"/>
	<path fill="#FFFAC6" d="M738.824,995.833c0-1.932-1.566-3.497-3.498-3.497s-3.498,1.565-3.498,3.497s1.566,3.496,3.498,3.496
		S738.824,997.765,738.824,995.833"/>
	<path fill="#FFFAC6" d="M837.334,1127.349c0-1.932-1.566-3.498-3.496-3.498c-1.932,0-3.5,1.566-3.5,3.498s1.568,3.498,3.5,3.498
		C835.768,1130.847,837.334,1129.28,837.334,1127.349"/>
	<path fill="#FFFAC6" d="M379.279,265.88c0-1.932-1.566-3.497-3.498-3.497s-3.498,1.565-3.498,3.497s1.566,3.496,3.498,3.496
		S379.279,267.812,379.279,265.88"/>
	<path fill="#FFFAC6" d="M1192.119,1230.466c0-2.848-2.309-5.154-5.154-5.154c-2.848,0-5.154,2.307-5.154,5.154
		c0,2.846,2.307,5.156,5.154,5.156C1189.811,1235.622,1192.119,1233.312,1192.119,1230.466"/>
	<path fill="#FFFAC6" d="M539.387,1271.099c0-3.064-2.485-5.551-5.552-5.551c-3.065,0-5.552,2.486-5.552,5.551
		c0,3.066,2.486,5.553,5.552,5.553C536.902,1276.651,539.387,1274.165,539.387,1271.099"/>
	<path fill="#FFFAC6" d="M1090.002,827.812c0-2.846-2.307-5.152-5.152-5.152s-5.154,2.307-5.154,5.152
		c0,2.848,2.309,5.154,5.154,5.154S1090.002,830.659,1090.002,827.812"/>
	<path fill="#FFFAC6" d="M208.83,530.576c0-1.932-1.566-3.496-3.498-3.496s-3.498,1.564-3.498,3.496s1.566,3.498,3.498,3.498
		S208.83,532.507,208.83,530.576"/>
	<path fill="#FFFAC6" d="M688.876,1127.504c0-1.932-1.566-3.498-3.496-3.498c-1.932,0-3.498,1.566-3.498,3.498
		c0,1.93,1.566,3.496,3.498,3.496C687.31,1131,688.876,1129.434,688.876,1127.504"/>
	<path fill="#FFFAC6" d="M96.021,1089.407c0-1.932-1.566-3.498-3.498-3.498s-3.498,1.566-3.498,3.498s1.566,3.498,3.498,3.498
		S96.021,1091.339,96.021,1089.407"/>
	<path fill="#FFFAC6" d="M756.195,111.398c0-1.801-1.461-3.262-3.262-3.262s-3.262,1.461-3.262,3.262s1.461,3.262,3.262,3.262
		S756.195,113.199,756.195,111.398"/>
	<path fill="#FFFAC6" d="M632.485,116.305c0-1.135-0.92-2.055-2.054-2.055c-1.135,0-2.055,0.92-2.055,2.055
		c0,1.133,0.92,2.055,2.055,2.055C631.565,118.359,632.485,117.438,632.485,116.305"/>
	<path fill="#FFFAC6" d="M561.18,88.533c2.846,0,5.152-2.307,5.152-5.152c0-2.846-2.307-5.154-5.152-5.154
		c-2.848,0-5.154,2.309-5.154,5.154C556.025,86.227,558.332,88.533,561.18,88.533"/>
	<path fill="#FFFAC6" d="M78.237,800.048c0,2.454,1.99,4.444,4.443,4.444c2.454,0,4.444-1.99,4.444-4.444s-1.99-4.443-4.444-4.443
		C80.227,795.604,78.237,797.594,78.237,800.048"/>
	<path fill="#FFFAC6" d="M158.862,771.149c0-1.134-0.92-2.054-2.054-2.054c-1.135,0-2.055,0.92-2.055,2.054
		c0,1.135,0.92,2.054,2.055,2.054C157.942,773.203,158.862,772.284,158.862,771.149"/>
	<path fill="#FFFAC6" d="M137.903,661.451c0-1.135-0.92-2.055-2.055-2.055s-2.055,0.92-2.055,2.055s0.92,2.054,2.055,2.054
		S137.903,662.585,137.903,661.451"/>
	<path fill="#FFFAC6" d="M263.03,1402.459c0,1.135,0.92,2.055,2.055,2.055s2.055-0.92,2.055-2.055s-0.92-2.055-2.055-2.055
		S263.03,1401.324,263.03,1402.459"/>
	<path fill="#FFFAC6" d="M199.888,1252.592c0,1.801,1.461,3.262,3.262,3.262s3.262-1.461,3.262-3.262s-1.461-3.262-3.262-3.262
		S199.888,1250.791,199.888,1252.592"/>
	<path fill="#FFFAC6" d="M288.088,1121.803c0,1.135,0.92,2.055,2.054,2.055c1.135,0,2.055-0.92,2.055-2.055s-0.92-2.055-2.055-2.055
		C289.008,1119.748,288.088,1120.668,288.088,1121.803"/>
	<path fill="#FFFAC6" d="M427.95,1362.719c-2.846,0-5.152,2.307-5.152,5.152s2.307,5.154,5.152,5.154
		c2.848,0,5.154-2.309,5.154-5.154S430.798,1362.719,427.95,1362.719"/>
	<g>
		<g>
			<path fill="#FFFAC6" d="M292.077,473.437h1.553v3.011c1.076-1.901,2.884-3.391,5.829-3.391c4.089,0,6.464,2.789,6.464,6.654
				v9.886h-1.552v-9.6c0-3.328-1.869-5.515-5.134-5.515c-3.168,0-5.607,2.408-5.607,5.768v9.347h-1.553V473.437"/>
		</g>
		<g>
			<path fill="#FFFAC6" d="M308.519,481.549v-0.063c0-4.689,3.296-8.429,7.669-8.429c4.53,0,7.414,3.676,7.414,8.461
				c0,0.285,0,0.38-0.03,0.634h-13.405c0.286,4.023,3.169,6.368,6.339,6.368c2.502,0,4.213-1.11,5.544-2.535l1.076,0.952
				c-1.647,1.774-3.577,3.04-6.685,3.04C312.195,489.977,308.519,486.588,308.519,481.549 M321.921,480.756
				c-0.221-3.263-2.091-6.273-5.797-6.273c-3.201,0-5.672,2.694-5.958,6.273H321.921z"/>
		</g>
		<g>
			<polyline fill="#FFFAC6" points="324.077,473.437 325.82,473.437 330.7,487.632 335.582,473.374 336.816,473.374 
				341.694,487.632 346.574,473.437 348.255,473.437 342.328,489.723 340.998,489.723 336.183,475.877 331.334,489.723 
				330.002,489.723 324.077,473.437 			"/>
		</g>
		<g>
			<path fill="#FFFAC6" d="M350.508,473.437h1.552v3.613c1.396-2.123,3.455-3.993,6.654-3.993c3.896,0,7.859,3.137,7.859,8.397
				v0.063c0,5.261-3.963,8.459-7.859,8.459c-3.23,0-5.324-1.837-6.654-3.865v8.555h-1.552V473.437 M364.892,481.58v-0.062
				c0-4.247-2.944-6.972-6.337-6.972c-3.36,0-6.59,2.821-6.59,6.939v0.063c0,4.15,3.229,6.939,6.59,6.939
				C362.074,488.488,364.892,485.921,364.892,481.58z"/>
		</g>
		<g>
			<path fill="#FFFAC6" d="M368.438,481.58v-0.062c0-4.531,3.519-8.461,8.335-8.461c4.785,0,8.27,3.866,8.27,8.397v0.063
				c0,4.531-3.516,8.459-8.333,8.459C371.925,489.977,368.438,486.111,368.438,481.58 M383.363,481.58v-0.062
				c0-3.898-2.913-7.003-6.654-7.003c-3.833,0-6.59,3.137-6.59,6.939v0.063c0,3.896,2.913,7.002,6.653,7.002
				C380.608,488.52,383.363,485.382,383.363,481.58z"/>
		</g>
		<g>
			<path fill="#FFFAC6" d="M387.582,473.437h1.55v4.595c1.269-2.882,3.96-4.975,7.162-4.848v1.712h-0.159
				c-3.738,0-7.003,2.818-7.003,8.078v6.623h-1.55V473.437"/>
		</g>
		<g>
			<path fill="#FFFAC6" d="M401.111,485.445v-10.582h-2.343v-1.427h2.343v-5.163h1.554v5.163h5.671v1.427h-5.671v10.424
				c0,2.313,1.361,3.138,3.231,3.138c0.793,0,1.459-0.158,2.376-0.571v1.46c-0.822,0.377-1.615,0.568-2.631,0.568
				C403.141,489.882,401.111,488.52,401.111,485.445"/>
		</g>
		<g>
			<polyline fill="#FFFAC6" points="422.779,467.417 438.402,467.417 438.402,468.938 424.429,468.938 424.429,478.031 
				436.976,478.031 436.976,479.554 424.429,479.554 424.429,489.597 422.779,489.597 422.779,467.417 			"/>
		</g>
		<g>
			<rect x="443.039" y="467.417" fill="#FFFAC6" width="1.649" height="22.18"/>
		</g>
		<g>
			<polyline fill="#FFFAC6" points="450.377,467.417 452.025,467.417 452.025,488.075 465.047,488.075 465.047,489.597 
				450.377,489.597 450.377,467.417 			"/>
		</g>
		<g>
			<polyline fill="#FFFAC6" points="468.492,467.417 470.046,467.417 478.947,480.533 487.854,467.417 489.405,467.417 
				489.405,489.597 487.759,489.597 487.759,470.332 478.981,483.101 478.853,483.101 470.074,470.332 470.074,489.597 
				468.492,489.597 468.492,467.417 			"/>
		</g>
		<g>
			<path fill="#FFFAC6" d="M497.003,496.559h-82.561v-36.796h82.561V496.559L497.003,496.559z M416.026,494.976h79.394v-33.63
				h-79.394V494.976L416.026,494.976z"/>
		</g>
	</g>
	<path fill="#FFFAC6" d="M833.839,1256.889c1.665,0,3.015-1.35,3.015-3.015s-1.35-3.015-3.015-3.015s-3.015,1.35-3.015,3.015
		S832.174,1256.889,833.839,1256.889"/>
	<path fill="#FFFAC6" d="M88.458,1367.168c-1.672,0-3.027,1.355-3.027,3.027s1.355,3.029,3.027,3.029s3.028-1.357,3.028-3.029
		S90.13,1367.168,88.458,1367.168"/>
	<path fill="#FFFAC6" d="M1169.873,1409.819c-1.672,0-3.027,1.355-3.027,3.027s1.355,3.029,3.027,3.029
		c1.673,0,3.028-1.357,3.028-3.029S1171.546,1409.819,1169.873,1409.819"/>
	<path fill="#FFFAC6" d="M608.785,1362.701c0-2.847-2.309-5.153-5.154-5.153s-5.154,2.307-5.154,5.153
		c0,2.846,2.309,5.154,5.154,5.154S608.785,1365.547,608.785,1362.701"/>
</g>
<g id="Layer_9">
</g>
</svg>
